<svg version="1.1" id="Layer_1" xmlns="http://www.w3.org/2000/svg" xmlns:xlink="http://www.w3.org/1999/xlink" x="0px" y="0px"
	 width="100%" viewBox="0 0 496 527" enable-background="new 0 0 496 527" xml:space="preserve">
<path fill="#0F0E0E" opacity="1.000000" stroke="none" 
	d="
M328.000000,528.000000 
	C218.666672,528.000000 109.833336,528.000000 1.000000,528.000000 
	C1.000000,352.333344 1.000000,176.666672 1.000000,1.000000 
	C166.333328,1.000000 331.666656,1.000000 497.000000,1.000000 
	C497.000000,176.666672 497.000000,352.333344 497.000000,528.000000 
	C440.833344,528.000000 384.666656,528.000000 328.000000,528.000000 
M406.050110,100.609650 
	C407.661835,99.757027 409.321228,98.982941 410.877258,98.038628 
	C419.018616,93.097961 423.114410,82.650101 420.812622,72.820976 
	C418.602356,63.382610 411.222076,56.628208 402.263184,55.844627 
	C392.550629,54.995132 383.361359,61.026531 380.280853,70.272667 
	C376.820740,80.658417 380.437622,92.162201 388.915009,97.712555 
	C390.576630,98.800453 392.253784,99.864647 393.785583,101.881012 
	C393.768585,130.895874 393.751587,159.910736 392.963074,188.916550 
	C383.863007,190.295059 377.353516,196.502945 377.205353,205.457718 
	C376.858582,226.414673 376.843292,247.385223 377.190277,268.342041 
	C377.353210,278.183594 385.000275,284.883972 394.810089,284.994720 
	C398.303589,285.034149 401.797913,285.008514 405.291840,285.002594 
	C418.211334,284.980743 425.012360,278.276215 425.043427,265.384094 
	C425.088745,246.583466 425.080505,227.782608 425.047119,208.981934 
	C425.023895,195.903030 418.658691,189.344986 405.687439,187.999069 
	C405.638092,159.048309 405.588745,130.097549 406.050110,100.609650 
M102.989456,100.588356 
	C113.594109,95.079781 118.535782,86.517883 117.065819,74.494171 
	C115.841110,64.476624 107.695175,56.516392 97.945808,55.817318 
	C87.624763,55.077255 78.684830,61.504074 75.992538,71.599266 
	C72.586540,84.370674 77.339531,93.691086 90.828239,101.907692 
	C90.809868,130.913284 90.791504,159.918884 89.931175,188.900757 
	C78.907440,189.403732 72.195618,194.275024 71.829308,204.846161 
	C71.085831,226.302155 71.614059,247.802399 71.644157,269.284363 
	C71.645309,270.104828 71.875320,270.934937 72.069313,271.743591 
	C74.007851,279.824432 80.252602,284.849670 88.613541,284.988403 
	C92.779045,285.057526 96.946793,285.029419 101.113197,284.999146 
	C111.867744,284.921021 119.085808,278.024841 119.167137,267.236694 
	C119.319168,247.071411 119.310707,226.903458 119.168457,206.738007 
	C119.096924,196.596512 112.782227,190.019363 102.635857,187.995468 
	C102.590919,159.042267 102.545990,130.089066 102.989456,100.588356 
M361.146576,243.500061 
	C361.145813,222.509262 361.067566,201.518112 361.167145,180.527786 
	C361.257751,161.424545 348.639557,143.137405 323.853729,143.361023 
	C273.379822,143.816406 222.898926,143.469345 172.421082,143.550323 
	C168.462891,143.556671 164.369019,143.809586 160.572342,144.824097 
	C145.022614,148.979065 135.271866,162.469116 135.216309,180.721191 
	C135.040848,238.362198 135.048843,296.004364 135.219238,353.645416 
	C135.268173,370.201233 144.241333,383.945160 157.369308,388.527557 
	C168.329956,392.353394 179.658585,390.524475 191.238205,390.701416 
	C191.238205,384.641083 191.237411,379.158325 191.238373,373.675598 
	C191.240005,364.346344 191.090103,355.013885 191.285675,345.688690 
	C191.504395,335.259583 196.118164,330.849365 206.422958,330.842773 
	C234.577347,330.824768 262.731781,330.811218 290.886108,330.850739 
	C300.137878,330.863708 304.976837,335.745361 305.057404,345.070801 
	C305.129364,353.399902 305.074799,361.730072 305.075439,370.059784 
	C305.075958,376.831390 305.075531,383.602966 305.075531,390.255920 
	C314.296234,390.255920 322.925507,390.607574 331.503265,390.095825 
	C335.336639,389.867126 339.404572,388.509796 342.783844,386.622314 
	C356.055786,379.209198 361.172821,367.182129 361.158081,352.453033 
	C361.122101,316.468750 361.146484,280.484406 361.146576,243.500061 
M163.295807,452.999542 
	C163.596970,464.063751 162.596390,462.736389 172.791107,463.108795 
	C177.565170,463.283173 178.807510,461.463470 178.725922,457.030457 
	C178.511353,445.371124 178.684464,433.705139 178.646332,422.041962 
	C178.609207,410.684052 179.701553,412.206421 168.372421,411.930420 
	C164.589386,411.838226 163.278091,413.427338 163.372147,416.931519 
	C163.461929,420.276794 163.391510,423.626373 163.391510,426.974060 
	C162.926895,427.047302 162.462280,427.120575 161.997665,427.193848 
	C159.404327,423.985016 156.479172,420.984772 154.298523,417.516449 
	C151.326187,412.788940 147.343765,411.434479 142.042145,411.901550 
	C139.150238,412.156342 137.797058,412.970612 137.810760,416.004822 
	C137.875488,430.333679 137.809418,444.663116 137.894608,458.991730 
	C137.901749,460.193024 138.598373,462.384705 139.121094,462.430115 
	C143.067398,462.772797 147.162796,463.219208 150.949936,462.409393 
	C152.016327,462.181335 152.600677,457.902435 152.726807,455.446625 
	C152.992096,450.281586 152.807404,445.093445 152.807404,439.914764 
	C153.325302,439.815430 153.843201,439.716095 154.361115,439.616760 
	C157.296875,443.800476 160.232651,447.984192 163.295807,452.999542 
M303.895844,429.500732 
	C303.892334,434.499908 303.822113,439.500275 303.907776,444.497894 
	C303.969543,448.099579 302.812225,450.031128 298.746338,450.079865 
	C294.462463,450.131226 293.204407,448.159027 293.259674,444.295380 
	C293.364563,436.964752 293.353668,429.630707 293.267731,422.299500 
	C293.130676,410.609497 295.033661,412.176392 282.351044,411.956970 
	C279.058197,411.899994 277.937775,413.249725 277.963806,416.389435 
	C278.059204,427.886597 277.897675,439.386993 278.091003,450.881836 
	C278.195190,457.076080 281.096130,461.308960 287.121704,462.492981 
	C293.074982,463.662781 299.387573,464.231934 305.395294,463.619781 
	C315.317261,462.608734 318.885803,457.939697 318.965973,447.926727 
	C319.035309,439.261993 319.014496,430.596100 318.976471,421.931000 
	C318.927002,410.658081 320.069305,412.192474 308.608582,411.947327 
	C305.210358,411.874634 303.699097,412.973328 303.862335,416.506042 
	C304.046661,420.496735 303.898926,424.502777 303.895844,429.500732 
M233.458115,431.127411 
	C236.556427,434.518219 237.123337,437.837219 233.739441,441.546295 
	C229.233047,446.485687 228.998566,452.653534 229.242676,458.924438 
	C229.355576,461.824158 230.530960,463.231323 233.519989,463.020325 
	C235.009323,462.915192 236.512589,463.012939 238.009537,463.009155 
	C244.612900,462.992493 244.761642,462.988281 244.629761,456.368073 
	C244.534180,451.570465 245.820862,447.705872 250.998001,444.427002 
	C252.498184,447.950287 254.868530,450.997803 254.910995,454.077423 
	C255.052811,464.359650 255.173523,462.880096 264.448792,463.008728 
	C264.947662,463.015656 265.452667,462.955902 265.944794,463.013184 
	C269.255829,463.398834 270.333862,461.630676 270.469788,458.629608 
	C270.771027,451.978424 270.071442,445.665009 265.191772,440.541199 
	C262.749298,437.976471 262.878479,435.627197 264.980286,432.647034 
	C267.126251,429.604156 269.331329,426.124237 269.940125,422.566895 
	C271.689514,412.344666 270.997498,412.074371 260.716278,411.893890 
	C256.256683,411.815643 255.241882,413.443939 254.912964,417.652100 
	C254.632401,421.241394 252.557068,424.690338 251.035980,428.858185 
	C246.192352,425.154907 244.698822,421.694916 244.635956,417.209625 
	C244.611847,415.489349 243.374664,412.628143 242.118973,412.265625 
	C231.739777,409.269226 227.462479,413.355530 229.855698,423.830048 
	C230.391052,426.173157 231.943924,428.283783 233.458115,431.127411 
M211.326416,430.994934 
	C209.995743,430.994568 208.578644,431.286255 207.355057,430.924103 
	C205.603210,430.405579 202.703461,429.597687 202.555222,428.582947 
	C202.038315,425.044342 205.195312,426.138428 207.101990,426.046326 
	C210.255005,425.894012 213.445251,425.753906 216.575409,426.061035 
	C221.467728,426.541016 223.334473,424.458313 222.826080,419.746307 
	C222.684036,418.429840 222.766891,417.087311 222.773621,415.756927 
	C222.787369,413.037384 221.456680,411.951691 218.740784,411.975342 
	C209.593109,412.055115 200.443558,412.069427 191.296326,411.966003 
	C188.334869,411.932526 187.051971,413.074768 187.061630,416.046600 
	C187.108124,430.351166 187.108261,444.656097 187.061707,458.960663 
	C187.052017,461.938477 188.348343,463.067230 191.303604,463.033966 
	C200.450836,462.930939 209.600388,462.944580 218.748062,463.024689 
	C221.469666,463.048523 222.786438,461.949951 222.774139,459.235840 
	C222.766602,457.572723 222.704041,455.903412 222.819260,454.247528 
	C223.084351,450.437439 221.497665,448.709473 217.569214,448.958740 
	C214.421616,449.158447 211.227646,449.229218 208.098984,448.913727 
	C206.027405,448.704834 202.356277,450.661285 202.422775,446.377228 
	C202.482254,442.545410 205.866699,444.410980 207.848801,444.049713 
	C209.136765,443.815002 210.518860,443.868561 211.829727,444.029510 
	C216.106461,444.554657 218.014420,442.856354 217.724442,438.449280 
	C217.476990,434.688324 218.532043,430.211975 211.326416,430.994934 
M326.305176,452.927246 
	C326.295868,454.259094 326.420197,455.607941 326.253357,456.919739 
	C325.637299,461.763062 327.711395,463.485809 332.499176,463.078949 
	C336.631653,462.727783 340.817627,463.006439 344.979950,463.006409 
	C360.847107,463.006287 363.410675,460.388641 363.264496,444.336884 
	C363.185211,435.631927 359.961029,432.094635 351.198242,431.017731 
	C348.728424,430.714203 346.243530,430.411957 343.831604,429.833466 
	C343.120209,429.662842 342.157440,428.527405 342.184906,427.870667 
	C342.210999,427.247955 343.347229,426.213928 344.057831,426.158142 
	C346.872192,425.937286 349.711090,426.012146 352.540924,426.008301 
	C361.256622,425.996521 361.256378,426.002045 361.026550,417.077637 
	C361.013672,416.578369 361.216644,415.892395 360.964569,415.611664 
	C359.831207,414.349335 358.671967,412.334229 357.335205,412.176727 
	C353.393372,411.712433 349.362915,411.994965 345.367157,411.994476 
	C328.542786,411.992432 325.591858,415.074005 326.293274,431.905548 
	C326.314056,432.404419 326.338501,432.903229 326.369263,433.401581 
	C326.687042,438.549927 329.420563,441.763458 334.369171,442.934479 
	C337.917145,443.774078 341.571838,444.167419 345.110809,445.037170 
	C346.111786,445.283203 346.873108,446.504425 347.744324,447.278320 
	C346.713531,447.846130 345.701447,448.860168 344.648682,448.904327 
	C340.161072,449.092590 335.635834,448.721680 331.179260,449.139984 
	C329.497620,449.297821 327.964600,451.039032 326.305176,452.927246 
z"/>
<path fill="#42BFE9" opacity="1.000000" stroke="none" 
	d="
M361.146576,244.000076 
	C361.146484,280.484406 361.122101,316.468750 361.158081,352.453033 
	C361.172821,367.182129 356.055786,379.209198 342.783844,386.622314 
	C339.404572,388.509796 335.336639,389.867126 331.503265,390.095825 
	C322.925507,390.607574 314.296234,390.255920 305.075531,390.255920 
	C305.075531,383.602966 305.075958,376.831390 305.075439,370.059784 
	C305.074799,361.730072 305.129364,353.399902 305.057404,345.070801 
	C304.976837,335.745361 300.137878,330.863708 290.886108,330.850739 
	C262.731781,330.811218 234.577347,330.824768 206.422958,330.842773 
	C196.118164,330.849365 191.504395,335.259583 191.285675,345.688690 
	C191.090103,355.013885 191.240005,364.346344 191.238373,373.675598 
	C191.237411,379.158325 191.238205,384.641083 191.238205,390.701416 
	C179.658585,390.524475 168.329956,392.353394 157.369308,388.527557 
	C144.241333,383.945160 135.268173,370.201233 135.219238,353.645416 
	C135.048843,296.004364 135.040848,238.362198 135.216309,180.721191 
	C135.271866,162.469116 145.022614,148.979065 160.572342,144.824097 
	C164.369019,143.809586 168.462891,143.556671 172.421082,143.550323 
	C222.898926,143.469345 273.379822,143.816406 323.853729,143.361023 
	C348.639557,143.137405 361.257751,161.424545 361.167145,180.527786 
	C361.067566,201.518112 361.145813,222.509262 361.146576,244.000076 
M186.566971,276.124329 
	C191.096130,277.077118 195.619370,278.821533 200.155411,278.855560 
	C232.144608,279.095520 264.137085,279.100525 296.127106,278.926270 
	C308.694122,278.857788 318.558807,273.318115 324.983673,262.366699 
	C336.514496,242.712006 326.556213,209.973557 294.396179,210.216324 
	C263.573273,210.449005 232.744415,210.047043 201.925064,210.450577 
	C195.811356,210.530624 189.071823,211.773315 183.766525,214.617126 
	C172.121948,220.859070 166.732071,231.617996 166.857346,244.808655 
	C166.990601,258.839630 173.277237,269.330383 186.566971,276.124329 
z"/>
<path fill="#01638B" opacity="1.000000" stroke="none" 
	d="
M102.642868,188.916245 
	C112.782227,190.019363 119.096924,196.596512 119.168457,206.738007 
	C119.310707,226.903458 119.319168,247.071411 119.167137,267.236694 
	C119.085808,278.024841 111.867744,284.921021 101.113197,284.999146 
	C96.946793,285.029419 92.779045,285.057526 88.613541,284.988403 
	C80.252602,284.849670 74.007851,279.824432 72.069313,271.743591 
	C71.875320,270.934937 71.645309,270.104828 71.644157,269.284363 
	C71.614059,247.802399 71.085831,226.302155 71.829308,204.846161 
	C72.195618,194.275024 78.907440,189.403732 90.823242,188.923218 
	C95.357826,188.935867 99.000351,188.926056 102.642868,188.916245 
z"/>
<path fill="#01638B" opacity="1.000000" stroke="none" 
	d="
M405.694366,188.920471 
	C418.658691,189.344986 425.023895,195.903030 425.047119,208.981934 
	C425.080505,227.782608 425.088745,246.583466 425.043427,265.384094 
	C425.012360,278.276215 418.211334,284.980743 405.291840,285.002594 
	C401.797913,285.008514 398.303589,285.034149 394.810089,284.994720 
	C385.000275,284.883972 377.353210,278.183594 377.190277,268.342041 
	C376.843292,247.385223 376.858582,226.414673 377.205353,205.457718 
	C377.353516,196.502945 383.863007,190.295059 393.822998,188.931839 
	C398.353394,188.938232 402.023895,188.929352 405.694366,188.920471 
z"/>
<path fill="#006289" opacity="1.000000" stroke="none" 
	d="
M163.232117,452.583740 
	C160.232651,447.984192 157.296875,443.800476 154.361115,439.616760 
	C153.843201,439.716095 153.325302,439.815430 152.807404,439.914764 
	C152.807404,445.093445 152.992096,450.281586 152.726807,455.446625 
	C152.600677,457.902435 152.016327,462.181335 150.949936,462.409393 
	C147.162796,463.219208 143.067398,462.772797 139.121094,462.430115 
	C138.598373,462.384705 137.901749,460.193024 137.894608,458.991730 
	C137.809418,444.663116 137.875488,430.333679 137.810760,416.004822 
	C137.797058,412.970612 139.150238,412.156342 142.042145,411.901550 
	C147.343765,411.434479 151.326187,412.788940 154.298523,417.516449 
	C156.479172,420.984772 159.404327,423.985016 161.997665,427.193848 
	C162.462280,427.120575 162.926895,427.047302 163.391510,426.974060 
	C163.391510,423.626373 163.461929,420.276794 163.372147,416.931519 
	C163.278091,413.427338 164.589386,411.838226 168.372421,411.930420 
	C179.701553,412.206421 178.609207,410.684052 178.646332,422.041962 
	C178.684464,433.705139 178.511353,445.371124 178.725922,457.030457 
	C178.807510,461.463470 177.565170,463.283173 172.791107,463.108795 
	C162.596390,462.736389 163.596970,464.063751 163.232117,452.583740 
z"/>
<path fill="#00638A" opacity="1.000000" stroke="none" 
	d="
M303.895721,429.001434 
	C303.898926,424.502777 304.046661,420.496735 303.862335,416.506042 
	C303.699097,412.973328 305.210358,411.874634 308.608582,411.947327 
	C320.069305,412.192474 318.927002,410.658081 318.976471,421.931000 
	C319.014496,430.596100 319.035309,439.261993 318.965973,447.926727 
	C318.885803,457.939697 315.317261,462.608734 305.395294,463.619781 
	C299.387573,464.231934 293.074982,463.662781 287.121704,462.492981 
	C281.096130,461.308960 278.195190,457.076080 278.091003,450.881836 
	C277.897675,439.386993 278.059204,427.886597 277.963806,416.389435 
	C277.937775,413.249725 279.058197,411.899994 282.351044,411.956970 
	C295.033661,412.176392 293.130676,410.609497 293.267731,422.299500 
	C293.353668,429.630707 293.364563,436.964752 293.259674,444.295380 
	C293.204407,448.159027 294.462463,450.131226 298.746338,450.079865 
	C302.812225,450.031128 303.969543,448.099579 303.907776,444.497894 
	C303.822113,439.500275 303.892334,434.499908 303.895721,429.001434 
z"/>
<path fill="#006289" opacity="1.000000" stroke="none" 
	d="
M233.243225,430.814423 
	C231.943924,428.283783 230.391052,426.173157 229.855698,423.830048 
	C227.462479,413.355530 231.739777,409.269226 242.118973,412.265625 
	C243.374664,412.628143 244.611847,415.489349 244.635956,417.209625 
	C244.698822,421.694916 246.192352,425.154907 251.035980,428.858185 
	C252.557068,424.690338 254.632401,421.241394 254.912964,417.652100 
	C255.241882,413.443939 256.256683,411.815643 260.716278,411.893890 
	C270.997498,412.074371 271.689514,412.344666 269.940125,422.566895 
	C269.331329,426.124237 267.126251,429.604156 264.980286,432.647034 
	C262.878479,435.627197 262.749298,437.976471 265.191772,440.541199 
	C270.071442,445.665009 270.771027,451.978424 270.469788,458.629608 
	C270.333862,461.630676 269.255829,463.398834 265.944794,463.013184 
	C265.452667,462.955902 264.947662,463.015656 264.448792,463.008728 
	C255.173523,462.880096 255.052811,464.359650 254.910995,454.077423 
	C254.868530,450.997803 252.498184,447.950287 250.998001,444.427002 
	C245.820862,447.705872 244.534180,451.570465 244.629761,456.368073 
	C244.761642,462.988281 244.612900,462.992493 238.009537,463.009155 
	C236.512589,463.012939 235.009323,462.915192 233.519989,463.020325 
	C230.530960,463.231323 229.355576,461.824158 229.242676,458.924438 
	C228.998566,452.653534 229.233047,446.485687 233.739441,441.546295 
	C237.123337,437.837219 236.556427,434.518219 233.243225,430.814423 
z"/>
<path fill="#00638A" opacity="1.000000" stroke="none" 
	d="
M211.783051,430.995453 
	C218.532043,430.211975 217.476990,434.688324 217.724442,438.449280 
	C218.014420,442.856354 216.106461,444.554657 211.829727,444.029510 
	C210.518860,443.868561 209.136765,443.815002 207.848801,444.049713 
	C205.866699,444.410980 202.482254,442.545410 202.422775,446.377228 
	C202.356277,450.661285 206.027405,448.704834 208.098984,448.913727 
	C211.227646,449.229218 214.421616,449.158447 217.569214,448.958740 
	C221.497665,448.709473 223.084351,450.437439 222.819260,454.247528 
	C222.704041,455.903412 222.766602,457.572723 222.774139,459.235840 
	C222.786438,461.949951 221.469666,463.048523 218.748062,463.024689 
	C209.600388,462.944580 200.450836,462.930939 191.303604,463.033966 
	C188.348343,463.067230 187.052017,461.938477 187.061707,458.960663 
	C187.108261,444.656097 187.108124,430.351166 187.061630,416.046600 
	C187.051971,413.074768 188.334869,411.932526 191.296326,411.966003 
	C200.443558,412.069427 209.593109,412.055115 218.740784,411.975342 
	C221.456680,411.951691 222.787369,413.037384 222.773621,415.756927 
	C222.766891,417.087311 222.684036,418.429840 222.826080,419.746307 
	C223.334473,424.458313 221.467728,426.541016 216.575409,426.061035 
	C213.445251,425.753906 210.255005,425.894012 207.101990,426.046326 
	C205.195312,426.138428 202.038315,425.044342 202.555222,428.582947 
	C202.703461,429.597687 205.603210,430.405579 207.355057,430.924103 
	C208.578644,431.286255 209.995743,430.994568 211.783051,430.995453 
z"/>
<path fill="#00638A" opacity="1.000000" stroke="none" 
	d="
M326.334473,452.492859 
	C327.964600,451.039032 329.497620,449.297821 331.179260,449.139984 
	C335.635834,448.721680 340.161072,449.092590 344.648682,448.904327 
	C345.701447,448.860168 346.713531,447.846130 347.744324,447.278320 
	C346.873108,446.504425 346.111786,445.283203 345.110809,445.037170 
	C341.571838,444.167419 337.917145,443.774078 334.369171,442.934479 
	C329.420563,441.763458 326.687042,438.549927 326.369263,433.401581 
	C326.338501,432.903229 326.314056,432.404419 326.293274,431.905548 
	C325.591858,415.074005 328.542786,411.992432 345.367157,411.994476 
	C349.362915,411.994965 353.393372,411.712433 357.335205,412.176727 
	C358.671967,412.334229 359.831207,414.349335 360.964569,415.611664 
	C361.216644,415.892395 361.013672,416.578369 361.026550,417.077637 
	C361.256378,426.002045 361.256622,425.996521 352.540924,426.008301 
	C349.711090,426.012146 346.872192,425.937286 344.057831,426.158142 
	C343.347229,426.213928 342.210999,427.247955 342.184906,427.870667 
	C342.157440,428.527405 343.120209,429.662842 343.831604,429.833466 
	C346.243530,430.411957 348.728424,430.714203 351.198242,431.017731 
	C359.961029,432.094635 363.185211,435.631927 363.264496,444.336884 
	C363.410675,460.388641 360.847107,463.006287 344.979950,463.006409 
	C340.817627,463.006439 336.631653,462.727783 332.499176,463.078949 
	C327.711395,463.485809 325.637299,461.763062 326.253357,456.919739 
	C326.420197,455.607941 326.295868,454.259094 326.334473,452.492859 
z"/>
<path fill="#01638B" opacity="1.000000" stroke="none" 
	d="
M90.972664,100.974640 
	C77.339531,93.691086 72.586540,84.370674 75.992538,71.599266 
	C78.684830,61.504074 87.624763,55.077255 97.945808,55.817318 
	C107.695175,56.516392 115.841110,64.476624 117.065819,74.494171 
	C118.535782,86.517883 113.594109,95.079781 102.319702,100.839569 
	C98.090851,101.052063 94.531761,101.013351 90.972664,100.974640 
z"/>
<path fill="#01638B" opacity="1.000000" stroke="none" 
	d="
M393.923767,100.939758 
	C392.253784,99.864647 390.576630,98.800453 388.915009,97.712555 
	C380.437622,92.162201 376.820740,80.658417 380.280853,70.272667 
	C383.361359,61.026531 392.550629,54.995132 402.263184,55.844627 
	C411.222076,56.628208 418.602356,63.382610 420.812622,72.820976 
	C423.114410,82.650101 419.018616,93.097961 410.877258,98.038628 
	C409.321228,98.982941 407.661835,99.757027 405.365143,100.860985 
	C401.094696,101.054802 397.509247,100.997276 393.923767,100.939758 
z"/>
<path fill="#41BEE8" opacity="1.000000" stroke="none" 
	d="
M393.854675,101.410385 
	C397.509247,100.997276 401.094696,101.054802 405.109802,101.129547 
	C405.588745,130.097549 405.638092,159.048309 405.690918,188.459778 
	C402.023895,188.929352 398.353394,188.938232 394.208771,188.936371 
	C393.751587,159.910736 393.768585,130.895874 393.854675,101.410385 
z"/>
<path fill="#41BEE7" opacity="1.000000" stroke="none" 
	d="
M90.900452,101.441162 
	C94.531761,101.013351 98.090851,101.052063 102.075500,101.113312 
	C102.545990,130.089066 102.590919,159.042267 102.639359,188.455856 
	C99.000351,188.926056 95.357826,188.935867 91.244217,188.935059 
	C90.791504,159.918884 90.809868,130.913284 90.900452,101.441162 
z"/>
<path fill="#02658D" opacity="1.000000" stroke="none" 
	d="
M186.199356,276.005066 
	C173.277237,269.330383 166.990601,258.839630 166.857346,244.808655 
	C166.732071,231.617996 172.121948,220.859070 183.766525,214.617126 
	C189.071823,211.773315 195.811356,210.530624 201.925064,210.450577 
	C232.744415,210.047043 263.573273,210.449005 294.396179,210.216324 
	C326.556213,209.973557 336.514496,242.712006 324.983673,262.366699 
	C318.558807,273.318115 308.694122,278.857788 296.127106,278.926270 
	C264.137085,279.100525 232.144608,279.095520 200.155411,278.855560 
	C195.619370,278.821533 191.096130,277.077118 186.199356,276.005066 
M223.196854,262.813934 
	C224.222214,261.970428 225.386322,261.248718 226.250488,260.263794 
	C232.027283,253.680023 234.451508,246.182541 231.501862,237.656250 
	C228.896576,230.125336 223.917877,224.666824 215.826080,223.120926 
	C206.420166,221.323990 198.125336,225.945694 193.811508,234.842987 
	C189.679169,243.365967 191.544937,254.090469 198.303818,260.665100 
	C205.014038,267.192383 213.786728,268.106354 223.196854,262.813934 
M292.924072,264.686340 
	C293.940613,264.122925 295.001129,263.625763 295.966675,262.985474 
	C303.005219,258.317902 306.725372,248.554932 304.901154,239.627060 
	C303.236389,231.479446 296.151428,224.190369 288.781372,223.042847 
	C280.020416,221.678741 272.063568,225.452454 267.704071,233.039124 
	C262.895111,241.408035 263.671387,251.890869 269.635956,259.127289 
	C275.085693,265.739105 283.462128,267.909088 292.924072,264.686340 
z"/>
<path fill="#3FB9E2" opacity="1.000000" stroke="none" 
	d="
M222.878983,263.003143 
	C213.786728,268.106354 205.014038,267.192383 198.303818,260.665100 
	C191.544937,254.090469 189.679169,243.365967 193.811508,234.842987 
	C198.125336,225.945694 206.420166,221.323990 215.826080,223.120926 
	C223.917877,224.666824 228.896576,230.125336 231.501862,237.656250 
	C234.451508,246.182541 232.027283,253.680023 226.250488,260.263794 
	C225.386322,261.248718 224.222214,261.970428 222.878983,263.003143 
M204.922058,229.206741 
	C198.807861,232.832962 195.742538,238.210541 195.948563,245.306931 
	C196.139557,251.886780 198.994080,256.990936 204.964279,260.049438 
	C211.638977,263.468903 218.814545,261.942780 223.893250,256.156006 
	C228.981750,250.358093 229.542847,241.142548 225.208145,234.821335 
	C221.154922,228.910583 213.549423,225.005890 204.922058,229.206741 
z"/>
<path fill="#40B9E1" opacity="1.000000" stroke="none" 
	d="
M292.569214,264.831360 
	C283.462128,267.909088 275.085693,265.739105 269.635956,259.127289 
	C263.671387,251.890869 262.895111,241.408035 267.704071,233.039124 
	C272.063568,225.452454 280.020416,221.678741 288.781372,223.042847 
	C296.151428,224.190369 303.236389,231.479446 304.901154,239.627060 
	C306.725372,248.554932 303.005219,258.317902 295.966675,262.985474 
	C295.001129,263.625763 293.940613,264.122925 292.569214,264.831360 
M272.920380,233.496521 
	C265.834564,243.533173 269.376556,257.415070 279.933563,260.982941 
	C287.303741,263.473755 295.492676,260.127441 299.046234,253.172791 
	C303.037750,245.360947 300.815735,235.250259 294.017548,230.291321 
	C287.459320,225.507431 279.697205,226.492752 272.920380,233.496521 
z"/>
<path fill="#12242A" opacity="1.000000" stroke="none" 
	d="
M205.272110,229.058716 
	C213.549423,225.005890 221.154922,228.910583 225.208145,234.821335 
	C229.542847,241.142548 228.981750,250.358093 223.893250,256.156006 
	C218.814545,261.942780 211.638977,263.468903 204.964279,260.049438 
	C198.994080,256.990936 196.139557,251.886780 195.948563,245.306931 
	C195.742538,238.210541 198.807861,232.832962 205.272110,229.058716 
M199.789276,251.388992 
	C200.529312,252.484848 201.153915,253.684387 202.029175,254.658783 
	C205.969299,259.045288 212.404648,260.493835 217.442917,258.219910 
	C222.751114,255.824142 226.503647,248.926971 225.723267,243.000671 
	C224.851501,236.380478 220.187317,231.098663 214.329041,230.097626 
	C208.512039,229.103622 202.105286,231.894257 200.147995,237.702255 
	C198.813034,241.663483 199.605347,246.341599 199.789276,251.388992 
z"/>
<path fill="#12262D" opacity="1.000000" stroke="none" 
	d="
M273.140625,233.204956 
	C279.697205,226.492752 287.459320,225.507431 294.017548,230.291321 
	C300.815735,235.250259 303.037750,245.360947 299.046234,253.172791 
	C295.492676,260.127441 287.303741,263.473755 279.933563,260.982941 
	C269.376556,257.415070 265.834564,243.533173 273.140625,233.204956 
M271.490082,246.087204 
	C271.764771,247.383743 271.912903,248.723206 272.335602,249.969528 
	C274.384583,256.011017 279.626801,259.443451 286.122986,259.087128 
	C292.225159,258.752350 297.052979,254.389618 298.425598,247.969650 
	C299.863037,241.246597 296.871979,234.466446 291.134796,231.442673 
	C285.772064,228.616257 278.952484,229.467056 275.421753,234.434708 
	C273.255524,237.482544 272.659088,241.646133 271.490082,246.087204 
z"/>
<path fill="#016188" opacity="1.000000" stroke="none" 
	d="
M199.617889,251.044098 
	C199.605347,246.341599 198.813034,241.663483 200.147995,237.702255 
	C202.105286,231.894257 208.512039,229.103622 214.329041,230.097626 
	C220.187317,231.098663 224.851501,236.380478 225.723267,243.000671 
	C226.503647,248.926971 222.751114,255.824142 217.442917,258.219910 
	C212.404648,260.493835 205.969299,259.045288 202.029175,254.658783 
	C201.153915,253.684387 200.529312,252.484848 199.617889,251.044098 
M219.237564,244.376953 
	C217.445297,241.441635 214.714981,240.398575 212.261383,242.756683 
	C211.037918,243.932571 210.773376,247.036057 211.371017,248.837738 
	C211.746033,249.968216 215.392319,251.338501 216.058578,250.784012 
	C217.669266,249.443542 218.393280,247.037674 219.237564,244.376953 
z"/>
<path fill="#016188" opacity="1.000000" stroke="none" 
	d="
M271.423920,245.697937 
	C272.659088,241.646133 273.255524,237.482544 275.421753,234.434708 
	C278.952484,229.467056 285.772064,228.616257 291.134796,231.442673 
	C296.871979,234.466446 299.863037,241.246597 298.425598,247.969650 
	C297.052979,254.389618 292.225159,258.752350 286.122986,259.087128 
	C279.626801,259.443451 274.384583,256.011017 272.335602,249.969528 
	C271.912903,248.723206 271.764771,247.383743 271.423920,245.697937 
M286.685089,250.977020 
	C287.798370,250.841278 289.621307,251.059387 289.897217,250.506042 
	C290.883850,248.527496 292.054535,246.166611 291.718567,244.195251 
	C291.540619,243.151108 287.739410,241.509033 286.748840,242.101471 
	C285.234009,243.007431 284.412781,245.538589 283.956451,247.530853 
	C283.760956,248.384216 285.222534,249.617172 286.685089,250.977020 
z"/>
<path fill="#0E1518" opacity="1.000000" stroke="none" 
	d="
M219.356140,244.719116 
	C218.393280,247.037674 217.669266,249.443542 216.058578,250.784012 
	C215.392319,251.338501 211.746033,249.968216 211.371017,248.837738 
	C210.773376,247.036057 211.037918,243.932571 212.261383,242.756683 
	C214.714981,240.398575 217.445297,241.441635 219.356140,244.719116 
z"/>
<path fill="#0E1315" opacity="1.000000" stroke="none" 
	d="
M286.308136,250.827332 
	C285.222534,249.617172 283.760956,248.384216 283.956451,247.530853 
	C284.412781,245.538589 285.234009,243.007431 286.748840,242.101471 
	C287.739410,241.509033 291.540619,243.151108 291.718567,244.195251 
	C292.054535,246.166611 290.883850,248.527496 289.897217,250.506042 
	C289.621307,251.059387 287.798370,250.841278 286.308136,250.827332 
z"/>
</svg>