<svg version="1.1" id="Layer_1" xmlns="http://www.w3.org/2000/svg" xmlns:xlink="http://www.w3.org/1999/xlink" x="0px" y="0px"
	 width="100%" viewBox="0 0 499 548" enable-background="new 0 0 499 548" xml:space="preserve">
<path fill="#FFFFFF" opacity="1.000000" stroke="none" 
	d="
M331.000000,549.000000 
	C220.692886,549.000000 110.885773,549.000000 1.039329,549.000000 
	C1.039329,366.403168 1.039329,183.806320 1.039329,1.104737 
	C167.223740,1.104737 333.447571,1.104737 499.835693,1.104737 
	C499.835693,183.666550 499.835693,366.333252 499.835693,549.000000 
	C443.806366,549.000000 387.653168,549.000000 331.000000,549.000000 
M406.000427,114.313354 
	C417.327393,109.881485 423.018524,100.347076 421.095123,88.249313 
	C419.808899,80.159302 415.360962,74.063560 407.575043,71.092575 
	C400.003662,68.203476 393.144257,69.613121 386.702881,74.862473 
	C375.424408,84.053780 375.648041,106.800438 393.335907,114.943542 
	C393.364075,126.880142 393.439728,138.816864 393.409149,150.753311 
	C393.364563,168.154282 393.243561,185.555084 392.365417,203.044907 
	C383.573486,204.483505 377.302094,210.738190 377.179535,219.546158 
	C376.887634,240.530746 376.843811,261.526276 377.195923,282.509033 
	C377.360321,292.307404 385.040588,298.914215 394.959076,298.996643 
	C398.623688,299.027100 402.288757,299.009674 405.953583,299.000519 
	C418.066528,298.970245 425.016968,292.002258 425.045837,279.716034 
	C425.090454,260.725586 425.080566,241.734894 425.050446,222.744370 
	C425.030334,210.051941 418.591919,203.398605 405.835785,201.988739 
	C405.822601,174.880356 405.817841,147.771957 405.778748,120.663620 
	C405.775909,118.683685 405.524170,116.704102 406.000427,114.313354 
M90.583237,115.626663 
	C90.534607,130.931351 90.506584,146.236160 90.431252,161.540710 
	C90.363327,175.340805 90.243607,189.140656 89.278664,202.989563 
	C79.129028,203.286057 72.238670,208.367844 71.911934,218.452240 
	C71.207016,240.208862 71.707626,262.004730 71.741676,283.784485 
	C71.742958,284.602356 71.969063,285.433990 72.181328,286.235138 
	C74.241501,294.010468 80.462219,298.874847 88.559181,298.990051 
	C92.719109,299.049225 96.880676,299.023712 101.041275,298.999054 
	C111.809776,298.935211 119.093765,292.104736 119.184570,281.390778 
	C119.356636,261.088043 119.345016,240.781876 119.179390,220.479004 
	C119.099480,210.684570 112.765709,204.100830 102.841949,201.994202 
	C102.828171,174.976410 102.829300,147.958588 102.771736,120.940880 
	C102.767220,118.825951 102.352905,116.711891 102.790337,114.259224 
	C114.224075,109.966644 118.905205,98.258560 117.017738,88.066643 
	C115.490326,79.818954 111.031311,73.655746 102.923080,70.851074 
	C95.012428,68.114738 87.987221,69.887260 81.853661,75.707970 
	C69.435608,87.492638 73.913460,107.161079 90.583237,115.626663 
M361.122620,262.500000 
	C361.122498,240.174515 361.185364,217.848816 361.105164,195.523621 
	C361.018585,171.417389 346.912720,157.339294 322.891968,157.326126 
	C272.909576,157.298737 222.927124,157.285416 172.944901,157.377884 
	C168.825714,157.385513 164.573608,157.736847 160.613525,158.792389 
	C145.262756,162.884018 135.264343,176.401062 135.202103,194.150146 
	C134.998825,252.128998 135.027740,310.109314 135.215729,368.088257 
	C135.250153,378.697113 138.782562,388.171570 146.845490,395.797974 
	C159.813538,408.063904 175.603531,404.199402 190.884323,404.821381 
	C191.007172,402.980377 191.149185,401.831207 191.150589,400.681854 
	C191.166870,387.353210 191.077194,374.023865 191.188446,360.696136 
	C191.283417,349.319122 195.792007,344.877472 206.924835,344.873810 
	C234.914978,344.864594 262.905151,344.850189 290.895264,344.882507 
	C300.202087,344.893250 304.981598,349.702698 305.045990,359.081665 
	C305.108887,368.244690 305.061493,377.408447 305.062134,386.571899 
	C305.062561,392.510437 305.062225,398.449005 305.062225,404.379791 
	C313.978851,404.379791 322.280029,404.771057 330.517487,404.216064 
	C334.687073,403.935181 339.117981,402.626465 342.780243,400.604370 
	C355.887817,393.366882 361.134979,381.537720 361.127502,366.963562 
	C361.109772,332.475708 361.122437,297.987854 361.122620,262.500000 
M178.578827,450.500122 
	C178.578842,445.842438 178.646454,441.183563 178.565842,436.527252 
	C178.351715,424.159027 180.634903,426.278534 167.585037,425.932739 
	C164.454224,425.849762 163.414551,427.150024 163.450745,429.998993 
	C163.499329,433.825775 163.462784,437.653656 163.462784,441.481049 
	C159.622787,438.263367 156.616989,435.124146 154.303452,431.538300 
	C151.455933,427.124695 147.847397,425.674652 142.654282,425.816223 
	C138.502213,425.929413 137.655151,427.383026 137.705872,431.093445 
	C137.874115,443.400757 137.769424,455.711761 137.769440,468.021362 
	C137.769440,470.807526 137.769440,473.593689 137.769440,477.012177 
	C141.359329,477.012177 144.337967,476.747559 147.250412,477.073792 
	C151.692993,477.571472 153.119461,475.875153 152.869476,471.481720 
	C152.528641,465.491760 152.784470,459.467804 152.784470,453.458435 
	C155.881439,455.925842 158.067551,458.421631 159.837280,461.184174 
	C161.297333,463.463257 163.083710,465.988068 163.300491,468.525726 
	C164.024155,476.996460 163.778778,477.017395 172.076599,477.012268 
	C172.908325,477.011749 173.749680,476.929657 174.570084,477.025879 
	C177.682083,477.390869 178.655045,475.881500 178.611877,472.958221 
	C178.506241,465.806946 178.578156,458.652985 178.578827,450.500122 
M313.334229,425.993988 
	C312.336060,425.993988 311.337860,425.993469 310.339691,425.994049 
	C303.885956,425.997925 303.882965,425.998016 303.880341,432.500854 
	C303.876801,441.318115 303.813843,450.136108 303.909760,458.952332 
	C303.947845,462.448975 302.762451,464.091339 298.977203,464.085419 
	C295.355652,464.079742 293.241791,463.260040 293.349365,459.146454 
	C293.497223,453.493958 293.384979,447.834717 293.384644,442.178345 
	C293.384338,436.922821 293.384583,431.667297 293.384583,425.995392 
	C288.887634,425.995392 285.247620,426.131073 281.623016,425.952972 
	C278.658905,425.807281 277.940918,427.212189 277.960022,429.854706 
	C278.044159,441.499390 277.914093,453.146210 278.068787,464.789520 
	C278.151184,470.991486 280.955078,475.334198 286.936554,476.461029 
	C293.195343,477.640106 299.860077,478.279114 306.122620,477.452118 
	C315.976044,476.150970 318.925354,471.852386 318.975708,461.793976 
	C319.027374,451.479706 318.879883,441.163239 319.045349,430.851349 
	C319.102600,427.283417 318.109680,425.405823 313.334229,425.993988 
M266.161743,477.011444 
	C267.487305,476.371094 269.969238,475.706146 269.956238,475.094299 
	C269.848053,470.014679 271.086609,463.555054 268.475739,460.159393 
	C262.924011,452.939087 263.248260,447.860413 268.543304,440.811584 
	C270.875183,437.707367 270.183014,431.830322 269.539581,427.404755 
	C269.407074,426.493408 263.378235,426.490173 260.081665,425.975281 
	C255.943466,425.328949 254.645828,427.287079 255.125168,431.095886 
	C255.730804,435.908478 253.179764,439.143860 248.800858,442.973389 
	C247.268005,439.052002 245.270828,435.906433 244.900803,432.579865 
	C244.172409,426.031586 244.546082,425.989990 237.774506,425.988373 
	C236.775070,425.988129 235.754776,426.120117 234.779739,425.965851 
	C230.226303,425.245514 229.417816,427.449524 229.125275,431.609436 
	C228.578476,439.384888 233.326736,444.649902 236.239960,449.334564 
	C233.686447,455.713867 230.404266,461.009796 229.553818,466.671021 
	C228.007599,476.963867 228.621582,476.757294 239.021301,477.140076 
	C244.040085,477.324829 245.118774,475.280090 244.626022,471.028595 
	C244.048767,466.048035 245.754044,462.034393 250.787369,458.095886 
	C252.381973,461.763336 254.637177,464.836884 254.961365,468.102203 
	C255.842789,476.979523 255.518829,477.011688 264.256653,477.011658 
	C264.589813,477.011658 264.922943,477.011627 266.161743,477.011444 
M360.545044,472.984680 
	C364.908875,467.773163 363.201019,461.551453 363.275024,455.687134 
	C363.340088,450.529816 360.382446,447.261475 355.482666,446.042664 
	C351.796814,445.125885 347.966309,444.797333 344.265961,443.927155 
	C343.302704,443.700623 342.585510,442.427643 341.755280,441.635345 
	C342.631531,441.094482 343.470825,440.177094 344.391266,440.086792 
	C346.701294,439.860168 349.048004,440.005585 351.380005,440.005402 
	C361.906982,440.004608 362.015869,439.993347 360.880737,429.453827 
	C360.744873,428.192291 358.693787,426.213837 357.448944,426.149719 
	C350.969849,425.816101 344.459412,425.836029 337.969391,426.037933 
	C330.882843,426.258423 326.597687,430.716522 326.370331,437.770294 
	C326.273804,440.765442 326.261475,443.770050 326.378540,446.763824 
	C326.612091,452.734406 328.835205,455.563904 334.654877,456.984589 
	C338.187805,457.847015 341.846130,458.194672 345.381287,459.049835 
	C346.354126,459.285187 347.086700,460.513733 347.929535,461.286560 
	C346.941772,461.855530 345.984802,462.839111 344.960480,462.915100 
	C341.978546,463.136353 338.969421,462.968109 335.971466,462.999664 
	C325.388947,463.110992 326.450134,461.345276 326.310669,473.086609 
	C326.274048,476.169067 327.468018,477.134369 330.452667,477.057983 
	C336.944733,476.891937 343.475922,477.390076 349.927307,476.851837 
	C353.355072,476.565857 356.649567,474.682434 360.545044,472.984680 
M211.511932,440.003998 
	C223.535339,439.776611 222.720230,442.250366 222.794418,429.958832 
	C222.812515,426.963806 221.700500,425.887817 218.660675,425.938751 
	C209.500458,426.092468 200.334579,426.085876 191.174057,425.941956 
	C188.152435,425.894501 187.015152,426.942627 187.033081,429.967865 
	C187.117966,444.294647 187.141571,458.622803 187.019669,472.949036 
	C186.990326,476.398956 188.524277,477.125244 191.591263,477.058075 
	C198.917984,476.897614 206.250595,477.006439 213.580826,477.006439 
	C223.133881,477.006470 223.014114,477.008820 222.824417,467.625336 
	C222.755081,464.196167 221.553558,462.825745 218.090424,462.949097 
	C212.969925,463.131409 207.838120,462.996185 202.541260,462.996185 
	C202.541260,461.140289 202.541260,459.761993 202.541260,458.005341 
	C206.455109,458.005341 210.107071,458.199646 213.718567,457.902496 
	C215.025497,457.794952 217.019882,456.768524 217.364059,455.721893 
	C219.814163,448.271240 217.383133,444.993927 209.777939,444.993591 
	C207.342026,444.993500 204.906113,444.993591 202.111603,444.993591 
	C202.333954,442.902985 202.481140,441.519043 202.642273,440.003998 
	C205.559784,440.003998 208.052933,440.003998 211.511932,440.003998 
z"/>
<path fill="#43C0EA" opacity="1.000000" stroke="none" 
	d="
M361.122711,263.000000 
	C361.122437,297.987854 361.109772,332.475708 361.127502,366.963562 
	C361.134979,381.537720 355.887817,393.366882 342.780243,400.604370 
	C339.117981,402.626465 334.687073,403.935181 330.517487,404.216064 
	C322.280029,404.771057 313.978851,404.379791 305.062225,404.379791 
	C305.062225,398.449005 305.062561,392.510437 305.062134,386.571899 
	C305.061493,377.408447 305.108887,368.244690 305.045990,359.081665 
	C304.981598,349.702698 300.202087,344.893250 290.895264,344.882507 
	C262.905151,344.850189 234.914978,344.864594 206.924835,344.873810 
	C195.792007,344.877472 191.283417,349.319122 191.188446,360.696136 
	C191.077194,374.023865 191.166870,387.353210 191.150589,400.681854 
	C191.149185,401.831207 191.007172,402.980377 190.884323,404.821381 
	C175.603531,404.199402 159.813538,408.063904 146.845490,395.797974 
	C138.782562,388.171570 135.250153,378.697113 135.215729,368.088257 
	C135.027740,310.109314 134.998825,252.128998 135.202103,194.150146 
	C135.264343,176.401062 145.262756,162.884018 160.613525,158.792389 
	C164.573608,157.736847 168.825714,157.385513 172.944901,157.377884 
	C222.927124,157.285416 272.909576,157.298737 322.891968,157.326126 
	C346.912720,157.339294 361.018585,171.417389 361.105164,195.523621 
	C361.185364,217.848816 361.122498,240.174515 361.122711,263.000000 
M251.500000,292.107788 
	C266.317078,292.107056 281.134186,292.123810 295.951202,292.088409 
	C298.439758,292.082458 301.002960,292.194031 303.404022,291.668243 
	C320.661682,287.889008 331.259796,272.542694 328.848053,253.760605 
	C326.853485,238.227127 315.420746,224.844940 296.264099,224.931473 
	C264.299744,225.075882 232.326981,225.383423 200.371857,224.821365 
	C179.938446,224.461960 167.198120,242.648422 166.953125,258.428162 
	C166.698563,274.824493 180.821564,293.008392 200.060715,292.244904 
	C216.849182,291.578705 233.685074,292.107300 251.500000,292.107788 
z"/>
<path fill="#02658E" opacity="1.000000" stroke="none" 
	d="
M102.963799,202.910141 
	C112.765709,204.100830 119.099480,210.684570 119.179390,220.479004 
	C119.345016,240.781876 119.356636,261.088043 119.184570,281.390778 
	C119.093765,292.104736 111.809776,298.935211 101.041275,298.999054 
	C96.880676,299.023712 92.719109,299.049225 88.559181,298.990051 
	C80.462219,298.874847 74.241501,294.010468 72.181328,286.235138 
	C71.969063,285.433990 71.742958,284.602356 71.741676,283.784485 
	C71.707626,262.004730 71.207016,240.208862 71.911934,218.452240 
	C72.238670,208.367844 79.129028,203.286057 90.155556,203.017517 
	C95.009567,203.000351 98.986679,202.955246 102.963799,202.910141 
z"/>
<path fill="#02658E" opacity="1.000000" stroke="none" 
	d="
M405.958618,202.903244 
	C418.591919,203.398605 425.030334,210.051941 425.050446,222.744370 
	C425.080566,241.734894 425.090454,260.725586 425.045837,279.716034 
	C425.016968,292.002258 418.066528,298.970245 405.953583,299.000519 
	C402.288757,299.009674 398.623688,299.027100 394.959076,298.996643 
	C385.040588,298.914215 377.360321,292.307404 377.195923,282.509033 
	C376.843811,261.526276 376.887634,240.530746 377.179535,219.546158 
	C377.302094,210.738190 383.573486,204.483505 393.203918,203.046906 
	C398.014465,203.000351 401.986542,202.951797 405.958618,202.903244 
z"/>
<path fill="#07688F" opacity="1.000000" stroke="none" 
	d="
M178.578705,451.000122 
	C178.578156,458.652985 178.506241,465.806946 178.611877,472.958221 
	C178.655045,475.881500 177.682083,477.390869 174.570084,477.025879 
	C173.749680,476.929657 172.908325,477.011749 172.076599,477.012268 
	C163.778778,477.017395 164.024155,476.996460 163.300491,468.525726 
	C163.083710,465.988068 161.297333,463.463257 159.837280,461.184174 
	C158.067551,458.421631 155.881439,455.925842 152.784470,453.458435 
	C152.784470,459.467804 152.528641,465.491760 152.869476,471.481720 
	C153.119461,475.875153 151.692993,477.571472 147.250412,477.073792 
	C144.337967,476.747559 141.359329,477.012177 137.769440,477.012177 
	C137.769440,473.593689 137.769440,470.807526 137.769440,468.021362 
	C137.769424,455.711761 137.874115,443.400757 137.705872,431.093445 
	C137.655151,427.383026 138.502213,425.929413 142.654282,425.816223 
	C147.847397,425.674652 151.455933,427.124695 154.303452,431.538300 
	C156.616989,435.124146 159.622787,438.263367 163.462784,441.481049 
	C163.462784,437.653656 163.499329,433.825775 163.450745,429.998993 
	C163.414551,427.150024 164.454224,425.849762 167.585037,425.932739 
	C180.634903,426.278534 178.351715,424.159027 178.565842,436.527252 
	C178.646454,441.183563 178.578842,445.842438 178.578705,451.000122 
z"/>
<path fill="#04668E" opacity="1.000000" stroke="none" 
	d="
M313.799988,425.994019 
	C318.109680,425.405823 319.102600,427.283417 319.045349,430.851349 
	C318.879883,441.163239 319.027374,451.479706 318.975708,461.793976 
	C318.925354,471.852386 315.976044,476.150970 306.122620,477.452118 
	C299.860077,478.279114 293.195343,477.640106 286.936554,476.461029 
	C280.955078,475.334198 278.151184,470.991486 278.068787,464.789520 
	C277.914093,453.146210 278.044159,441.499390 277.960022,429.854706 
	C277.940918,427.212189 278.658905,425.807281 281.623016,425.952972 
	C285.247620,426.131073 288.887634,425.995392 293.384583,425.995392 
	C293.384583,431.667297 293.384338,436.922821 293.384644,442.178345 
	C293.384979,447.834717 293.497223,453.493958 293.349365,459.146454 
	C293.241791,463.260040 295.355652,464.079742 298.977203,464.085419 
	C302.762451,464.091339 303.947845,462.448975 303.909760,458.952332 
	C303.813843,450.136108 303.876801,441.318115 303.880341,432.500854 
	C303.882965,425.998016 303.885956,425.997925 310.339691,425.994049 
	C311.337860,425.993469 312.336060,425.993988 313.799988,425.994019 
z"/>
<path fill="#06688F" opacity="1.000000" stroke="none" 
	d="
M265.708923,477.011536 
	C264.922943,477.011627 264.589813,477.011658 264.256653,477.011658 
	C255.518829,477.011688 255.842789,476.979523 254.961365,468.102203 
	C254.637177,464.836884 252.381973,461.763336 250.787369,458.095886 
	C245.754044,462.034393 244.048767,466.048035 244.626022,471.028595 
	C245.118774,475.280090 244.040085,477.324829 239.021301,477.140076 
	C228.621582,476.757294 228.007599,476.963867 229.553818,466.671021 
	C230.404266,461.009796 233.686447,455.713867 236.239960,449.334564 
	C233.326736,444.649902 228.578476,439.384888 229.125275,431.609436 
	C229.417816,427.449524 230.226303,425.245514 234.779739,425.965851 
	C235.754776,426.120117 236.775070,425.988129 237.774506,425.988373 
	C244.546082,425.989990 244.172409,426.031586 244.900803,432.579865 
	C245.270828,435.906433 247.268005,439.052002 248.800858,442.973389 
	C253.179764,439.143860 255.730804,435.908478 255.125168,431.095886 
	C254.645828,427.287079 255.943466,425.328949 260.081665,425.975281 
	C263.378235,426.490173 269.407074,426.493408 269.539581,427.404755 
	C270.183014,431.830322 270.875183,437.707367 268.543304,440.811584 
	C263.248260,447.860413 262.924011,452.939087 268.475739,460.159393 
	C271.086609,463.555054 269.848053,470.014679 269.956238,475.094299 
	C269.969238,475.706146 267.487305,476.371094 265.708923,477.011536 
z"/>
<path fill="#04678E" opacity="1.000000" stroke="none" 
	d="
M360.274658,473.252380 
	C356.649567,474.682434 353.355072,476.565857 349.927307,476.851837 
	C343.475922,477.390076 336.944733,476.891937 330.452667,477.057983 
	C327.468018,477.134369 326.274048,476.169067 326.310669,473.086609 
	C326.450134,461.345276 325.388947,463.110992 335.971466,462.999664 
	C338.969421,462.968109 341.978546,463.136353 344.960480,462.915100 
	C345.984802,462.839111 346.941772,461.855530 347.929535,461.286560 
	C347.086700,460.513733 346.354126,459.285187 345.381287,459.049835 
	C341.846130,458.194672 338.187805,457.847015 334.654877,456.984589 
	C328.835205,455.563904 326.612091,452.734406 326.378540,446.763824 
	C326.261475,443.770050 326.273804,440.765442 326.370331,437.770294 
	C326.597687,430.716522 330.882843,426.258423 337.969391,426.037933 
	C344.459412,425.836029 350.969849,425.816101 357.448944,426.149719 
	C358.693787,426.213837 360.744873,428.192291 360.880737,429.453827 
	C362.015869,439.993347 361.906982,440.004608 351.380005,440.005402 
	C349.048004,440.005585 346.701294,439.860168 344.391266,440.086792 
	C343.470825,440.177094 342.631531,441.094482 341.755280,441.635315 
	C342.585510,442.427643 343.302704,443.700623 344.265961,443.927155 
	C347.966309,444.797333 351.796814,445.125885 355.482666,446.042664 
	C360.382446,447.261475 363.340088,450.529816 363.275024,455.687134 
	C363.201019,461.551453 364.908875,467.773163 360.274658,473.252380 
z"/>
<path fill="#04668E" opacity="1.000000" stroke="none" 
	d="
M211.029007,440.003998 
	C208.052933,440.003998 205.559784,440.003998 202.642273,440.003998 
	C202.481140,441.519043 202.333954,442.902985 202.111603,444.993591 
	C204.906113,444.993591 207.342026,444.993500 209.777939,444.993591 
	C217.383133,444.993927 219.814163,448.271240 217.364059,455.721893 
	C217.019882,456.768524 215.025497,457.794952 213.718567,457.902496 
	C210.107071,458.199646 206.455109,458.005341 202.541260,458.005341 
	C202.541260,459.761993 202.541260,461.140289 202.541260,462.996185 
	C207.838120,462.996185 212.969925,463.131409 218.090424,462.949097 
	C221.553558,462.825745 222.755081,464.196167 222.824417,467.625336 
	C223.014114,477.008820 223.133881,477.006470 213.580826,477.006439 
	C206.250595,477.006439 198.917984,476.897614 191.591263,477.058075 
	C188.524277,477.125244 186.990326,476.398956 187.019669,472.949036 
	C187.141571,458.622803 187.117966,444.294647 187.033081,429.967865 
	C187.015152,426.942627 188.152435,425.894501 191.174057,425.941956 
	C200.334579,426.085876 209.500458,426.092468 218.660675,425.938751 
	C221.700500,425.887817 222.812515,426.963806 222.794418,429.958832 
	C222.720230,442.250366 223.535339,439.776611 211.029007,440.003998 
z"/>
<path fill="#04668F" opacity="1.000000" stroke="none" 
	d="
M90.811317,114.667542 
	C73.913460,107.161079 69.435608,87.492638 81.853661,75.707970 
	C87.987221,69.887260 95.012428,68.114738 102.923080,70.851074 
	C111.031311,73.655746 115.490326,79.818954 117.017738,88.066643 
	C118.905205,98.258560 114.224075,109.966644 102.071762,114.472893 
	C97.839233,114.680222 94.325279,114.673882 90.811317,114.667542 
z"/>
<path fill="#03668E" opacity="1.000000" stroke="none" 
	d="
M393.234467,114.019035 
	C375.648041,106.800438 375.424408,84.053780 386.702881,74.862473 
	C393.144257,69.613121 400.003662,68.203476 407.575043,71.092575 
	C415.360962,74.063560 419.808899,80.159302 421.095123,88.249313 
	C423.018524,100.347076 417.327393,109.881485 405.285400,114.527199 
	C400.791748,114.500374 397.013123,114.259705 393.234467,114.019035 
z"/>
<path fill="#4AC3EB" opacity="1.000000" stroke="none" 
	d="
M393.285187,114.481293 
	C397.013123,114.259705 400.791748,114.500374 404.979279,114.732697 
	C405.524170,116.704102 405.775909,118.683685 405.778748,120.663620 
	C405.817841,147.771957 405.822601,174.880356 405.897217,202.445984 
	C401.986542,202.951797 398.014465,203.000351 393.598755,203.002441 
	C393.243561,185.555084 393.364563,168.154282 393.409149,150.753311 
	C393.439728,138.816864 393.364075,126.880142 393.285187,114.481293 
z"/>
<path fill="#4BC3EB" opacity="1.000000" stroke="none" 
	d="
M90.697281,115.147102 
	C94.325279,114.673882 97.839233,114.680222 101.741119,114.641998 
	C102.352905,116.711891 102.767220,118.825951 102.771736,120.940880 
	C102.829300,147.958588 102.828171,174.976410 102.902878,202.452179 
	C98.986679,202.955246 95.009567,203.000351 90.589600,202.993042 
	C90.243607,189.140656 90.363327,175.340805 90.431252,161.540710 
	C90.506584,146.236160 90.534607,130.931351 90.697281,115.147102 
z"/>
<path fill="#01658E" opacity="1.000000" stroke="none" 
	d="
M251.000000,292.107910 
	C233.685074,292.107300 216.849182,291.578705 200.060715,292.244904 
	C180.821564,293.008392 166.698563,274.824493 166.953125,258.428162 
	C167.198120,242.648422 179.938446,224.461960 200.371857,224.821365 
	C232.326981,225.383423 264.299744,225.075882 296.264099,224.931473 
	C315.420746,224.844940 326.853485,238.227127 328.848053,253.760605 
	C331.259796,272.542694 320.661682,287.889008 303.404022,291.668243 
	C301.002960,292.194031 298.439758,292.082458 295.951202,292.088409 
	C281.134186,292.123810 266.317078,292.107056 251.000000,292.107910 
M224.070023,276.613068 
	C226.896423,272.268280 230.926147,268.272583 232.308197,263.508789 
	C235.564667,252.283890 228.190994,239.844116 217.710190,237.001999 
	C206.583008,233.984604 195.885620,240.012085 192.366089,251.282242 
	C189.473495,260.544861 192.514542,271.337860 199.490646,276.568054 
	C207.210388,282.355774 215.567657,282.531921 224.070023,276.613068 
M264.087463,259.382904 
	C264.656738,270.676331 273.648712,280.608612 283.621460,280.959564 
	C293.550446,281.309021 301.212372,275.796387 304.533081,265.914093 
	C307.736908,256.379639 304.349915,245.091965 296.460052,239.731979 
	C289.871155,235.255829 282.830414,234.620255 275.810120,238.585831 
	C268.151154,242.912155 264.149933,249.599472 264.087463,259.382904 
z"/>
<path fill="#47BDE5" opacity="1.000000" stroke="none" 
	d="
M223.782913,276.843536 
	C215.567657,282.531921 207.210388,282.355774 199.490646,276.568054 
	C192.514542,271.337860 189.473495,260.544861 192.366089,251.282242 
	C195.885620,240.012085 206.583008,233.984604 217.710190,237.001999 
	C228.190994,239.844116 235.564667,252.283890 232.308197,263.508789 
	C230.926147,268.272583 226.896423,272.268280 223.782913,276.843536 
M201.645813,271.908142 
	C212.512833,279.725647 224.700806,275.240692 227.767792,262.295715 
	C229.476379,255.084152 225.720154,246.692093 219.179123,243.107269 
	C212.881073,239.655624 205.930420,240.972595 200.646301,246.618774 
	C193.961990,253.761124 194.135330,262.591827 201.645813,271.908142 
z"/>
<path fill="#48BEE5" opacity="1.000000" stroke="none" 
	d="
M264.085327,258.941559 
	C264.149933,249.599472 268.151154,242.912155 275.810120,238.585831 
	C282.830414,234.620255 289.871155,235.255829 296.460052,239.731979 
	C304.349915,245.091965 307.736908,256.379639 304.533081,265.914093 
	C301.212372,275.796387 293.550446,281.309021 283.621460,280.959564 
	C273.648712,280.608612 264.656738,270.676331 264.085327,258.941559 
M269.973328,252.686462 
	C270.048950,256.880554 270.124573,261.074646 270.169800,265.217285 
	C270.169800,265.217285 270.068024,265.147949 270.478119,265.889465 
	C273.585846,268.939362 276.214752,272.925690 279.914642,274.817413 
	C285.326416,277.584351 290.877869,275.912231 295.509827,271.796661 
	C301.311920,266.641388 302.062225,260.089233 300.377991,253.116592 
	C298.805756,246.607758 292.738922,241.508331 285.955597,241.219376 
	C278.291656,240.892929 273.221161,245.092300 270.079102,251.773056 
	C270.079102,251.773056 270.201019,251.721725 269.973328,252.686462 
z"/>
<path fill="#DCEFF5" opacity="1.000000" stroke="none" 
	d="
M201.389130,271.646912 
	C194.135330,262.591827 193.961990,253.761124 200.646301,246.618774 
	C205.930420,240.972595 212.881073,239.655624 219.179123,243.107269 
	C225.720154,246.692093 229.476379,255.084152 227.767792,262.295715 
	C224.700806,275.240692 212.512833,279.725647 201.389130,271.646912 
M209.892075,273.145477 
	C216.224289,274.036713 220.978119,271.577209 223.930573,266.033295 
	C226.897064,260.463013 226.619232,254.887527 222.927979,249.637894 
	C219.779526,245.160217 215.464447,243.234863 210.031265,243.967484 
	C204.510193,244.711975 198.602158,250.615402 198.114777,255.797562 
	C197.318909,264.259552 201.262100,270.477844 209.892075,273.145477 
z"/>
<path fill="#D7ECF4" opacity="1.000000" stroke="none" 
	d="
M270.200226,265.268738 
	C270.124573,261.074646 270.048950,256.880554 270.138916,252.287628 
	C270.304535,251.888794 270.290070,252.016983 270.290070,252.016983 
	C270.290070,252.016983 270.068329,251.843460 270.068329,251.843460 
	C273.221161,245.092300 278.291656,240.892929 285.955597,241.219376 
	C292.738922,241.508331 298.805756,246.607758 300.377991,253.116592 
	C302.062225,260.089233 301.311920,266.641388 295.509827,271.796661 
	C290.877869,275.912231 285.326416,277.584351 279.914642,274.817413 
	C276.214752,272.925690 273.585846,268.939362 270.348694,265.460754 
	C270.219299,265.032013 270.342194,265.027618 270.342194,265.027618 
	C270.342194,265.027618 270.200226,265.268738 270.200226,265.268738 
M279.817780,244.830399 
	C278.463562,245.780487 276.936707,246.558105 275.785339,247.710815 
	C271.059967,252.441696 270.290833,258.142181 272.296631,264.279327 
	C273.979950,269.429779 279.031433,273.031097 284.302826,273.266785 
	C290.526031,273.544952 294.950256,270.700256 297.403961,265.196136 
	C299.866058,259.673126 299.524231,254.127594 295.681885,249.199585 
	C291.767548,244.179260 286.614990,242.794250 279.817780,244.830399 
z"/>
<path fill="#0A6A92" opacity="1.000000" stroke="none" 
	d="
M270.073730,251.808258 
	C270.068329,251.843460 270.290070,252.016983 270.290070,252.016983 
	C270.290070,252.016983 270.304535,251.888794 270.252777,251.805267 
	C270.201019,251.721725 270.079102,251.773056 270.073730,251.808258 
z"/>
<path fill="#0A6A92" opacity="1.000000" stroke="none" 
	d="
M270.184998,265.243011 
	C270.200226,265.268738 270.342194,265.027618 270.342194,265.027618 
	C270.342194,265.027618 270.219299,265.032013 270.143677,265.089966 
	C270.068024,265.147949 270.169800,265.217285 270.184998,265.243011 
z"/>
<path fill="#0A6A91" opacity="1.000000" stroke="none" 
	d="
M209.472778,273.096497 
	C201.262100,270.477844 197.318909,264.259552 198.114777,255.797562 
	C198.602158,250.615402 204.510193,244.711975 210.031265,243.967484 
	C215.464447,243.234863 219.779526,245.160217 222.927979,249.637894 
	C226.619232,254.887527 226.897064,260.463013 223.930573,266.033295 
	C220.978119,271.577209 216.224289,274.036713 209.472778,273.096497 
M210.543808,259.097504 
	C211.723450,261.124695 212.903091,263.151886 214.082733,265.179077 
	C215.866577,264.061066 218.485001,263.305298 219.176178,261.712952 
	C219.752686,260.384827 218.608078,257.320587 217.269714,256.367065 
	C214.873840,254.660172 212.198456,255.277573 210.543808,259.097504 
z"/>
<path fill="#0A6A92" opacity="1.000000" stroke="none" 
	d="
M280.187073,244.678833 
	C286.614990,242.794250 291.767548,244.179260 295.681885,249.199585 
	C299.524231,254.127594 299.866058,259.673126 297.403961,265.196136 
	C294.950256,270.700256 290.526031,273.544952 284.302826,273.266785 
	C279.031433,273.031097 273.979950,269.429779 272.296631,264.279327 
	C270.290833,258.142181 271.059967,252.441696 275.785339,247.710815 
	C276.936707,246.558105 278.463562,245.780487 280.187073,244.678833 
M285.596771,256.138702 
	C284.978821,257.094055 283.748444,258.134369 283.866852,258.987518 
	C284.136719,260.932251 284.614746,263.250214 285.899353,264.501984 
	C286.676910,265.259644 289.733887,264.910431 290.659637,263.969421 
	C291.798096,262.812164 292.746735,259.726898 292.058105,258.890472 
	C290.782562,257.341125 288.257935,256.820038 285.596771,256.138702 
z"/>
<path fill="#EBF3F6" opacity="1.000000" stroke="none" 
	d="
M210.673737,258.750427 
	C212.198456,255.277573 214.873840,254.660172 217.269714,256.367065 
	C218.608078,257.320587 219.752686,260.384827 219.176178,261.712952 
	C218.485001,263.305298 215.866577,264.061066 214.082733,265.179077 
	C212.903091,263.151886 211.723450,261.124695 210.673737,258.750427 
z"/>
<path fill="#F0F6F8" opacity="1.000000" stroke="none" 
	d="
M285.925171,256.004700 
	C288.257935,256.820038 290.782562,257.341125 292.058105,258.890472 
	C292.746735,259.726898 291.798096,262.812164 290.659637,263.969421 
	C289.733887,264.910431 286.676910,265.259644 285.899353,264.501984 
	C284.614746,263.250214 284.136719,260.932251 283.866852,258.987518 
	C283.748444,258.134369 284.978821,257.094055 285.925171,256.004700 
z"/>
</svg>